<svg height="512pt" viewBox="0 0 512 512" width="512pt" xmlns="http://www.w3.org/2000/svg"><path d="M437.02 74.98C388.668 26.63 324.379 0 256 0S123.332 26.629 74.98 74.98C26.63 123.332 0 187.621 0 256s26.629 132.668 74.98 181.02C123.332 485.37 187.621 512 256 512s132.668-26.629 181.02-74.98C485.37 388.668 512 324.379 512 256s-26.629-132.668-74.98-181.02zM169.262 367.937c-13.73 0-24.907-11.171-24.907-24.906s11.176-24.906 24.907-24.906c13.734 0 24.906 11.172 24.906 24.906s-11.172 24.906-24.906 24.906zm80.277 4.926c-8.281 0-15-6.715-15-15 0-44.172-35.937-80.11-80.11-80.11-8.284 0-15-6.718-15-15 0-8.284 6.716-15 15-15 60.716 0 110.11 49.395 110.11 110.11 0 8.285-6.715 15-15 15zm67.094 0c-8.285 0-15-6.715-15-15 0-81.168-66.035-147.203-147.203-147.203-8.285 0-15-6.715-15-15s6.715-15 15-15c97.71 0 177.203 79.492 177.203 177.203 0 8.285-6.715 15-15 15zm66.293 0c-8.281 0-15-6.715-15-15 0-117.722-95.774-213.496-213.496-213.496-8.285 0-15-6.715-15-15s6.715-15 15-15c65.039 0 126.187 25.328 172.18 71.317 45.988 45.992 71.316 107.14 71.316 172.18 0 8.284-6.715 15-15 15zm0 0"/></svg>